<?xml version="1.0" encoding="utf-8"?>
<!-- Generator: Adobe Illustrator 18.1.0, SVG Export Plug-In . SVG Version: 6.00 Build 0)  -->
<!DOCTYPE svg PUBLIC "-//W3C//DTD SVG 1.1//EN" "http://www.w3.org/Graphics/SVG/1.1/DTD/svg11.dtd">
<svg version="1.1" id="Layer_1" xmlns="http://www.w3.org/2000/svg" xmlns:xlink="http://www.w3.org/1999/xlink" x="0px" y="0px"
	 viewBox="0 0 652 1041.1" enable-background="new 0 0 652 1041.1" xml:space="preserve">
<g>
	<defs>
		<rect id="SVGID_1_" x="0" width="652" height="1041.1"/>
	</defs>
	<clipPath id="SVGID_2_">
		<use xlink:href="#SVGID_1_"  overflow="visible"/>
	</clipPath>
	<g clip-path="url(#SVGID_2_)">
		
			<linearGradient id="SVGID_3_" gradientUnits="userSpaceOnUse" x1="381.2122" y1="-821.6156" x2="381.2122" y2="2445.5925" gradientTransform="matrix(0.9945 -0.1046 0.1046 0.9945 -362.5414 -234.8275)">
			<stop  offset="0.2325" style="stop-color:#B72126"/>
			<stop  offset="0.3095" style="stop-color:#B82527"/>
			<stop  offset="0.3861" style="stop-color:#BA322B"/>
			<stop  offset="0.4627" style="stop-color:#BF4535"/>
			<stop  offset="0.5393" style="stop-color:#C55C47"/>
			<stop  offset="0.6159" style="stop-color:#CD7660"/>
			<stop  offset="0.6926" style="stop-color:#D99782"/>
			<stop  offset="0.7679" style="stop-color:#E8C2B4"/>
			<stop  offset="0.8428" style="stop-color:#FFFFFF"/>
		</linearGradient>
		<path opacity="0.7" fill="url(#SVGID_3_)" d="M627.7,426.7C202.8,799.5-232.9,951.9-506.3,776.7
			C-718.6,640.4-791.4,332.5-737.1-51.7c-496.9-93.7-827-279.7-853.7-524.3c0.1,0.7,0.1,1.4,0.2,2.1
			C-1488.8,394.4-471.6,1080.9,681.4,959.6c374.5-39.4,717-159.4,1005.5-336.3C1435.9,743.3,1044.1,663.6,627.7,426.7z"/>
		
			<linearGradient id="SVGID_4_" gradientUnits="userSpaceOnUse" x1="-390.3627" y1="1236.8544" x2="260.636" y2="453.7855" gradientTransform="matrix(0.9945 -0.1046 0.1046 0.9945 -362.5414 -234.8275)">
			<stop  offset="0" style="stop-color:#ED1B2F;stop-opacity:0"/>
			<stop  offset="2.620846e-02" style="stop-color:#EE2932;stop-opacity:1.546299e-02"/>
			<stop  offset="0.1983" style="stop-color:#F15F4D;stop-opacity:0.117"/>
			<stop  offset="0.3698" style="stop-color:#F47F66;stop-opacity:0.2182"/>
			<stop  offset="0.5377" style="stop-color:#F6967B;stop-opacity:0.3173"/>
			<stop  offset="0.701" style="stop-color:#F8A68C;stop-opacity:0.4136"/>
			<stop  offset="0.8575" style="stop-color:#F9B097;stop-opacity:0.5059"/>
			<stop  offset="1" style="stop-color:#FAB49B;stop-opacity:0.59"/>
		</linearGradient>
		<path fill="url(#SVGID_4_)" d="M61.6,15.7c-293.7,0.4-564.7-23.3-798.8-67.4c-54.2,384.2,18.2,692.1,230.6,828.4
			c273.3,175.3,709.4,22.7,1134.3-350C440.4,320.2,248.2,181.9,61.6,15.7z"/>
		
			<linearGradient id="SVGID_5_" gradientUnits="userSpaceOnUse" x1="2135.4331" y1="1335.3461" x2="1545.4836" y2="428.9552" gradientTransform="matrix(0.9945 -0.1046 0.1046 0.9945 -362.5414 -234.8275)">
			<stop  offset="0" style="stop-color:#ED1B2F;stop-opacity:0"/>
			<stop  offset="2.620846e-02" style="stop-color:#EE2932;stop-opacity:1.546299e-02"/>
			<stop  offset="0.1983" style="stop-color:#F15F4D;stop-opacity:0.117"/>
			<stop  offset="0.3698" style="stop-color:#F47F66;stop-opacity:0.2182"/>
			<stop  offset="0.5377" style="stop-color:#F6967B;stop-opacity:0.3173"/>
			<stop  offset="0.701" style="stop-color:#F8A68C;stop-opacity:0.4136"/>
			<stop  offset="0.8575" style="stop-color:#F9B097;stop-opacity:0.5059"/>
			<stop  offset="1" style="stop-color:#FAB49B;stop-opacity:0.59"/>
		</linearGradient>
		<path fill="url(#SVGID_5_)" d="M1878.3-283.8c-231.4,83.9-498.1,154.8-788.1,206.6C943.5,117.9,786.3,287.6,627.7,426.7
			c416.4,236.9,808.3,316.5,1059.2,196.5c33.5-20.6,66.3-41.9,98.3-63.9c7.1-6.1,14.5-12,21.2-18.6
			C1981.7,370,1996.2,67.6,1878.3-283.8z"/>
		
			<linearGradient id="SVGID_6_" gradientUnits="userSpaceOnUse" x1="936.5131" y1="-185.0107" x2="876.632" y2="998.8182" gradientTransform="matrix(0.9945 -0.1046 0.1046 0.9945 -362.5414 -234.8275)">
			<stop  offset="0" style="stop-color:#ED1B2F;stop-opacity:0"/>
			<stop  offset="7.984211e-02" style="stop-color:#F04D43;stop-opacity:8.177668e-02"/>
			<stop  offset="0.2166" style="stop-color:#F47E68;stop-opacity:0.2219"/>
			<stop  offset="0.3539" style="stop-color:#F8A38D;stop-opacity:0.3624"/>
			<stop  offset="0.4884" style="stop-color:#FBC2B1;stop-opacity:0.5002"/>
			<stop  offset="0.6196" style="stop-color:#FDDBCF;stop-opacity:0.6347"/>
			<stop  offset="0.7467" style="stop-color:#FEEDE6;stop-opacity:0.7648"/>
			<stop  offset="0.8677" style="stop-color:#FFF9F6;stop-opacity:0.8888"/>
			<stop  offset="0.9763" style="stop-color:#FFFFFF"/>
		</linearGradient>
		<path fill="url(#SVGID_6_)" d="M658.6-16.3c-24.9,4.3-50,8-75.5,10.7c-38.1,4-75.9,5.8-113.2,6C330.1,10.5,193.6,15.5,61.6,15.7
			c162.6,144.8,359.8,293.6,566.1,411c158.7-139.2,315.9-308.8,462.5-503.9C954.7-52.9,814.3-32.8,669.9-17.5
			C666.1-17.1,662.4-16.7,658.6-16.3z"/>
	</g>
</g>
<rect x="0" opacity="0.8" fill="#E22131" width="652" height="1041.1"/>
</svg>
